<svg xmlns="http://www.w3.org/2000/svg" xmlns:xlink="http://www.w3.org/1999/xlink" width="1920" zoomAndPan="magnify" viewBox="0 0 1440 809.999993" height="1080" preserveAspectRatio="xMidYMid meet" version="1.0"><defs><clipPath id="8d9276c998"><path d="M 463.917969 275 L 650.667969 275 L 650.667969 542 L 463.917969 542 Z M 463.917969 275 " clip-rule="nonzero"/></clipPath><clipPath id="f3553a7f02"><path d="M 497 426 L 577 426 L 577 503 L 497 503 Z M 497 426 " clip-rule="nonzero"/></clipPath><clipPath id="15eb283512"><path d="M 573.722656 421.394531 L 581.222656 494.507812 L 505.121094 502.316406 L 497.621094 429.199219 Z M 573.722656 421.394531 " clip-rule="nonzero"/></clipPath><clipPath id="976c69c3b1"><path d="M 573.722656 421.394531 L 581.910156 501.222656 L 479.699219 511.710938 L 471.507812 431.878906 Z M 573.722656 421.394531 " clip-rule="nonzero"/></clipPath><clipPath id="7b4b9a038f"><path d="M 502 433 L 572 433 L 572 496 L 502 496 Z M 502 433 " clip-rule="nonzero"/></clipPath><clipPath id="21a15f81b0"><path d="M 573.722656 421.394531 L 581.222656 494.507812 L 505.121094 502.316406 L 497.621094 429.199219 Z M 573.722656 421.394531 " clip-rule="nonzero"/></clipPath><clipPath id="1853fdebbb"><path d="M 573.722656 421.394531 L 581.910156 501.222656 L 479.699219 511.710938 L 471.507812 431.878906 Z M 573.722656 421.394531 " clip-rule="nonzero"/></clipPath></defs><g clip-path="url(#8d9276c998)"><path fill="#d89c60" d="M 557.339844 275 C 505.757812 275 463.917969 316.839844 463.917969 368.417969 C 463.917969 438.484375 557.339844 541.917969 557.339844 541.917969 C 557.339844 541.917969 650.761719 438.484375 650.761719 368.417969 C 650.761719 316.839844 608.921875 275 557.339844 275 Z M 557.339844 401.785156 C 538.921875 401.785156 523.972656 386.835938 523.972656 368.417969 C 523.972656 350.003906 538.921875 335.054688 557.339844 335.054688 C 575.757812 335.054688 590.703125 350.003906 590.703125 368.417969 C 590.703125 386.835938 575.757812 401.785156 557.339844 401.785156 Z M 557.339844 401.785156 " fill-opacity="1" fill-rule="nonzero"/></g><g clip-path="url(#f3553a7f02)"><g clip-path="url(#15eb283512)"><g clip-path="url(#976c69c3b1)"><path fill="#fef9ea" d="M 507.160156 443.851562 C 509.378906 443.238281 511.957031 442.585938 514.03125 441.578125 C 516.121094 440.550781 517.058594 436.976562 518.347656 435.050781 C 520.46875 431.925781 523.214844 429.140625 526.609375 427.507812 C 530.003906 425.878906 534.089844 425.457031 537.578125 426.914062 C 539.851562 427.839844 541.75 429.496094 544.050781 430.296875 C 547.851562 431.636719 552.175781 430.542969 555.957031 431.90625 C 561.199219 433.789062 563.726562 439.59375 567.726562 443.457031 C 569.148438 444.839844 570.773438 445.992188 572.164062 447.4375 C 576.199219 451.644531 577.46875 458.269531 575.253906 463.667969 C 574.3125 465.980469 572.8125 468.027344 571.976562 470.414062 C 570.953125 473.308594 571.011719 476.476562 570.28125 479.460938 C 568.382812 487.328125 560.53125 493.324219 552.425781 493.097656 C 550.714844 493.046875 548.992188 492.757812 547.277344 492.890625 C 543.003906 493.269531 539.507812 496.292969 535.550781 497.984375 C 528.726562 500.921875 520.875 499.773438 513.597656 501.230469 C 508.054688 502.328125 502.789062 504.578125 497.574219 506.703125 C 487.160156 510.945312 480.308594 509.796875 479.855469 509.558594 L 475.707031 469.140625 C 476.09375 468.347656 476.589844 467.605469 477.257812 466.984375 C 479.597656 464.792969 483.417969 464.359375 486.285156 463.128906 C 489.988281 461.546875 493.898438 460.78125 496.265625 457.445312 C 498.078125 454.878906 498.96875 453.257812 500.472656 450.480469 C 502.042969 447.734375 504.132812 444.691406 507.160156 443.851562 Z M 507.160156 443.851562 " fill-opacity="1" fill-rule="nonzero"/></g></g></g><g clip-path="url(#7b4b9a038f)"><g clip-path="url(#21a15f81b0)"><g clip-path="url(#1853fdebbb)"><path fill="#005174" d="M 550.523438 469.175781 C 549.816406 471.222656 548.640625 473.050781 547.464844 474.882812 C 544.289062 479.828125 541.089844 484.753906 537.914062 489.699219 C 536.949219 491.183594 535.945312 492.730469 534.433594 493.640625 C 532.1875 494.988281 525.128906 496.996094 520.8125 492.414062 C 519.398438 490.929688 518.398438 489.117188 517.652344 487.179688 C 516.113281 483.085938 514.625 478.921875 512.199219 475.304688 C 509.722656 471.613281 506.324219 468.601562 504.117188 464.757812 C 501.910156 460.914062 501.207031 455.636719 504.164062 452.339844 C 506.449219 449.785156 510.273438 449.191406 513.6875 449.53125 C 517.101562 449.871094 520.390625 451.019531 523.816406 451.28125 C 528.128906 451.652344 532.441406 450.640625 536.757812 450.441406 C 547.128906 449.96875 554.167969 458.6875 550.523438 469.175781 Z M 568.1875 452.527344 C 566.121094 451.601562 563.734375 451.355469 561.5625 452.027344 C 559.394531 452.695312 557.503906 454.316406 556.703125 456.433594 C 555.925781 458.546875 556.3125 461.132812 557.84375 462.789062 C 559.148438 464.179688 561.128906 464.851562 563.015625 464.78125 C 564.902344 464.730469 566.761719 464.007812 568.390625 463.027344 C 569.519531 462.320312 570.609375 461.457031 571.265625 460.3125 C 573.007812 457.261719 571.132812 453.832031 568.1875 452.527344 Z M 560.648438 473.265625 C 559.222656 473.023438 557.761719 472.871094 556.359375 473.113281 C 554.960938 473.359375 553.570312 474.074219 552.703125 475.34375 C 551.726562 476.746094 551.492188 478.621094 551.554688 480.425781 C 551.597656 481.621094 551.765625 482.886719 552.28125 483.953125 C 553.214844 485.914062 555.261719 487.003906 557.21875 487.046875 C 560.097656 487.121094 564.75 484.667969 565.929688 481.496094 C 567.425781 477.414062 563.875 473.769531 560.648438 473.265625 Z M 558.367188 436.929688 C 557.644531 436.046875 556.632812 435.519531 555.640625 435.171875 C 553.257812 434.359375 550.679688 434.398438 548.347656 435.269531 C 546.796875 435.855469 545.222656 436.976562 544.71875 438.796875 C 544.222656 440.515625 544.816406 442.53125 545.84375 443.992188 C 547.34375 446.117188 549.722656 447.277344 552.011719 447.207031 C 554.304688 447.132812 556.515625 445.871094 558.089844 443.9375 C 559.53125 442.121094 559.996094 438.9375 558.367188 436.929688 Z M 534.296875 434.800781 C 533.054688 433.785156 531.273438 433.683594 529.660156 433.828125 C 527.820312 433.976562 525.953125 434.394531 524.382812 435.347656 C 522.808594 436.304688 521.527344 437.898438 521.289062 439.734375 C 521.027344 441.757812 522.035156 443.832031 523.683594 445.027344 C 525.332031 446.21875 527.5 446.527344 529.496094 446.136719 C 531.488281 445.710938 533.289062 444.609375 534.726562 443.160156 C 535.371094 442.503906 535.96875 441.769531 536.265625 440.90625 C 536.820312 439.179688 535.652344 435.921875 534.296875 434.800781 Z M 534.296875 434.800781 " fill-opacity="1" fill-rule="nonzero"/></g></g></g></svg>