<svg xmlns="http://www.w3.org/2000/svg" xmlns:xlink="http://www.w3.org/1999/xlink" width="1920" zoomAndPan="magnify" viewBox="0 0 1440 809.999993" height="1080" preserveAspectRatio="xMidYMid meet" version="1.0"><defs><g/><clipPath id="0caab2a077"><path d="M 1230.542969 81 L 1283.316406 81 L 1283.316406 132.476562 L 1230.542969 132.476562 Z M 1230.542969 81 " clip-rule="nonzero"/></clipPath><clipPath id="f8c8b5eb70"><path d="M 463.917969 275 L 650.859375 275 L 650.859375 541.960938 L 463.917969 541.960938 Z M 463.917969 275 " clip-rule="nonzero"/></clipPath><clipPath id="ed8f0d4ffb"><path d="M 475 426 L 577 426 L 577 510 L 475 510 Z M 475 426 " clip-rule="nonzero"/></clipPath><clipPath id="29f699c7d8"><path d="M 573.71875 421.398438 L 581.886719 501 L 480.324219 511.421875 L 472.160156 431.820312 Z M 573.71875 421.398438 " clip-rule="nonzero"/></clipPath><clipPath id="e94fa84e47"><path d="M 573.71875 421.398438 L 581.886719 501 L 480.324219 511.421875 L 472.160156 431.820312 Z M 573.71875 421.398438 " clip-rule="nonzero"/></clipPath><clipPath id="38e4599c54"><path d="M 502 433 L 572 433 L 572 496 L 502 496 Z M 502 433 " clip-rule="nonzero"/></clipPath><clipPath id="d356198bbb"><path d="M 573.71875 421.398438 L 581.886719 501 L 480.324219 511.421875 L 472.160156 431.820312 Z M 573.71875 421.398438 " clip-rule="nonzero"/></clipPath><clipPath id="e296b8b70a"><path d="M 573.71875 421.398438 L 581.886719 501 L 480.324219 511.421875 L 472.160156 431.820312 Z M 573.71875 421.398438 " clip-rule="nonzero"/></clipPath><clipPath id="9d618de8c4"><path d="M 197.683594 335.03125 L 225.121094 335.03125 L 225.121094 452.738281 L 197.683594 452.738281 Z M 197.683594 335.03125 " clip-rule="nonzero"/></clipPath><clipPath id="ec254e641a"><path d="M 1097.339844 541.925781 L 1220.878906 541.925781 L 1220.878906 810 L 1097.339844 810 Z M 1097.339844 541.925781 " clip-rule="nonzero"/></clipPath><clipPath id="c5c6dcff40"><path d="M 852.878906 164.390625 L 880.578125 164.390625 L 880.578125 204.429688 L 852.878906 204.429688 Z M 852.878906 164.390625 " clip-rule="nonzero"/></clipPath><clipPath id="08f9ab5a8b"><path d="M 880.578125 170.390625 L 880.578125 198.359375 C 880.578125 201.671875 877.894531 204.359375 874.578125 204.359375 L 858.878906 204.359375 C 855.566406 204.359375 852.878906 201.671875 852.878906 198.359375 L 852.878906 170.390625 C 852.878906 167.078125 855.566406 164.390625 858.878906 164.390625 L 874.578125 164.390625 C 877.894531 164.390625 880.578125 167.078125 880.578125 170.390625 Z M 880.578125 170.390625 " clip-rule="nonzero"/></clipPath><clipPath id="702d05a1c2"><path d="M 907.117188 184.984375 L 947.089844 184.984375 L 947.089844 205.867188 L 907.117188 205.867188 Z M 907.117188 184.984375 " clip-rule="nonzero"/></clipPath><clipPath id="3202ec0eec"><path d="M 913.117188 184.984375 L 941.085938 184.984375 C 944.398438 184.984375 947.085938 187.671875 947.085938 190.984375 L 947.085938 199.867188 C 947.085938 203.179688 944.398438 205.867188 941.085938 205.867188 L 913.117188 205.867188 C 909.804688 205.867188 907.117188 203.179688 907.117188 199.867188 L 907.117188 190.984375 C 907.117188 187.671875 909.804688 184.984375 913.117188 184.984375 Z M 913.117188 184.984375 " clip-rule="nonzero"/></clipPath><clipPath id="a3bc7b5045"><path d="M 893.601562 198.46875 L 933.574219 198.46875 L 933.574219 219.351562 L 893.601562 219.351562 Z M 893.601562 198.46875 " clip-rule="nonzero"/></clipPath><clipPath id="d8e2c77222"><path d="M 899.601562 198.46875 L 927.570312 198.46875 C 930.882812 198.46875 933.570312 201.15625 933.570312 204.46875 L 933.570312 213.351562 C 933.570312 216.664062 930.882812 219.351562 927.570312 219.351562 L 899.601562 219.351562 C 896.289062 219.351562 893.601562 216.664062 893.601562 213.351562 L 893.601562 204.46875 C 893.601562 201.15625 896.289062 198.46875 899.601562 198.46875 Z M 899.601562 198.46875 " clip-rule="nonzero"/></clipPath></defs><g fill="#033757" fill-opacity="1"><g transform="translate(231.719276, 533.242172)"><g><path d="M 108.867188 -161.53125 C 107.804688 -163.652344 107.097656 -164.710938 106.390625 -166.125 C 101.089844 -177.082031 95.789062 -187.6875 90.132812 -198.644531 C 85.183594 -207.835938 82.003906 -217.730469 77.761719 -227.273438 C 74.933594 -234.699219 71.398438 -242.121094 68.21875 -249.894531 C 67.15625 -252.371094 65.035156 -253.785156 62.207031 -253.785156 L 51.957031 -253.785156 C 41.707031 -253.078125 31.105469 -252.371094 20.855469 -250.957031 C 18.734375 -250.601562 17.320312 -249.542969 17.320312 -247.070312 C 16.964844 -246.363281 16.964844 -245.65625 16.964844 -244.59375 C 16.964844 -223.386719 17.320312 -202.179688 16.257812 -180.617188 C 15.199219 -164.003906 15.90625 -147.039062 15.90625 -130.425781 C 15.90625 -120.882812 16.257812 -110.988281 16.613281 -101.441406 C 16.964844 -87.304688 15.550781 -73.519531 15.550781 -59.382812 C 15.199219 -41.707031 14.84375 -23.683594 14.492188 -6.007812 C 14.136719 -3.886719 14.492188 -1.765625 15.550781 0.351562 C 16.613281 2.121094 18.027344 3.179688 20.148438 3.179688 C 25.800781 3.179688 31.457031 2.828125 36.761719 2.828125 C 39.234375 2.828125 41.707031 2.828125 43.828125 3.179688 C 49.484375 3.179688 55.140625 3.886719 60.441406 3.886719 C 64.683594 3.886719 66.804688 1.414062 67.15625 -2.472656 L 67.15625 -13.429688 L 68.21875 -97.203125 L 68.21875 -137.140625 C 68.21875 -138.203125 67.863281 -139.261719 68.925781 -140.675781 C 69.984375 -137.496094 71.398438 -135.023438 72.105469 -132.195312 C 76.347656 -119.46875 82.355469 -107.804688 88.011719 -95.789062 C 91.191406 -89.070312 94.375 -82.355469 97.910156 -75.640625 C 99.675781 -72.105469 101.441406 -68.570312 104.269531 -65.035156 C 106.390625 -62.5625 111.695312 -62.207031 113.8125 -65.390625 C 114.875 -66.804688 116.289062 -68.570312 116.996094 -70.339844 C 120.175781 -76.347656 123.359375 -83.0625 126.539062 -89.425781 C 128.304688 -93.3125 130.78125 -97.203125 132.546875 -101.089844 C 134.316406 -104.269531 135.375 -107.804688 136.789062 -110.988281 C 138.554688 -115.226562 140.675781 -119.117188 142.089844 -123.003906 C 144.210938 -128.304688 145.980469 -133.253906 148.101562 -138.203125 C 148.101562 -138.910156 148.808594 -139.617188 149.160156 -140.324219 C 149.511719 -139.617188 149.867188 -138.910156 149.867188 -138.203125 C 149.867188 -109.21875 149.867188 -80.589844 150.21875 -51.605469 C 150.21875 -35.699219 150.574219 -20.148438 150.925781 -4.242188 C 150.925781 0 154.460938 3.535156 158.703125 3.886719 C 160.824219 3.886719 163.296875 3.886719 165.417969 3.535156 C 172.488281 3.535156 179.203125 2.121094 185.921875 3.179688 C 188.039062 3.535156 189.808594 3.535156 191.929688 3.179688 C 194.050781 2.828125 196.523438 1.765625 198.644531 0.707031 C 200.410156 -0.351562 200.765625 -2.472656 200.765625 -4.59375 C 200.410156 -18.734375 200.410156 -33.226562 200.058594 -47.363281 C 199.703125 -58.675781 198.996094 -70.339844 198.996094 -81.648438 C 199.351562 -110.632812 199.703125 -139.617188 200.058594 -168.953125 C 200.058594 -188.039062 201.117188 -207.128906 198.996094 -226.214844 C 198.292969 -231.871094 198.292969 -237.523438 196.878906 -242.828125 C 195.464844 -249.1875 190.867188 -251.308594 185.921875 -252.015625 C 176.023438 -253.429688 166.480469 -253.785156 156.582031 -253.785156 C 153.046875 -253.785156 150.574219 -252.371094 149.160156 -249.1875 C 144.210938 -239.644531 140.675781 -229.042969 136.4375 -219.144531 C 134.316406 -213.136719 131.839844 -207.128906 129.011719 -201.472656 C 123.003906 -189.453125 116.996094 -177.789062 110.988281 -165.773438 C 110.632812 -164.710938 109.925781 -163.296875 108.867188 -161.53125 Z M 108.867188 -161.53125 "/></g></g></g><g fill="#033757" fill-opacity="1"><g transform="translate(446.629421, 533.242172)"><g/></g></g><g fill="#033757" fill-opacity="1"><g transform="translate(517.321266, 533.242172)"><g/></g></g><g fill="#033757" fill-opacity="1"><g transform="translate(588.013111, 533.242172)"><g/></g></g><g fill="#d89c60" fill-opacity="1"><g transform="translate(658.715348, 533.242172)"><g><path d="M 14.84375 -112.753906 L 14.84375 -108.511719 C 13.785156 -93.667969 14.492188 -78.820312 18.378906 -63.976562 C 19.792969 -59.382812 21.207031 -54.433594 22.976562 -49.835938 C 25.09375 -44.535156 27.214844 -39.234375 31.105469 -34.992188 C 31.105469 -34.992188 31.457031 -34.285156 31.457031 -33.933594 C 34.285156 -28.984375 38.171875 -24.742188 42.414062 -20.855469 C 47.363281 -16.613281 52.3125 -12.371094 57.613281 -8.835938 C 61.148438 -6.007812 65.035156 -3.886719 69.632812 -2.828125 C 73.875 -1.765625 78.113281 0 82.355469 0.707031 C 87.65625 1.765625 92.960938 2.472656 98.261719 3.179688 L 99.320312 3.179688 C 105.332031 2.472656 111.339844 2.121094 117.347656 0 C 121.238281 -1.058594 124.769531 -2.472656 128.304688 -4.242188 C 136.789062 -8.484375 143.152344 -14.84375 149.160156 -21.5625 C 152.339844 -25.449219 155.167969 -28.984375 157.996094 -32.871094 C 161.882812 -38.878906 166.125 -44.183594 168.953125 -50.898438 C 170.367188 -54.078125 172.136719 -57.613281 173.550781 -60.796875 C 178.144531 -71.753906 180.265625 -83.0625 182.03125 -94.375 C 184.859375 -111.695312 186.625 -129.367188 186.273438 -146.6875 C 185.921875 -154.460938 185.214844 -162.238281 183.445312 -169.660156 C 180.265625 -183.09375 176.375 -195.816406 172.136719 -208.894531 C 168.953125 -217.023438 165.066406 -225.152344 159.765625 -232.222656 C 156.582031 -236.816406 152.695312 -240.707031 147.746094 -243.886719 C 141.382812 -247.777344 135.023438 -251.308594 127.953125 -253.785156 C 121.945312 -255.90625 115.933594 -256.964844 109.574219 -257.320312 C 102.855469 -257.671875 96.140625 -256.964844 89.777344 -255.90625 C 83.769531 -254.84375 78.113281 -253.785156 73.167969 -250.601562 C 72.8125 -250.601562 72.8125 -250.25 72.460938 -250.25 C 67.863281 -249.1875 63.976562 -246.007812 60.441406 -243.179688 C 56.199219 -240 51.957031 -236.464844 48.070312 -232.929688 C 40.292969 -226.214844 34.285156 -218.085938 30.042969 -208.542969 C 29.335938 -206.421875 28.628906 -204.300781 27.570312 -202.179688 C 24.390625 -195.464844 22.621094 -188.039062 21.207031 -180.265625 C 19.792969 -171.429688 19.085938 -162.589844 17.671875 -153.753906 C 16.964844 -147.394531 15.90625 -141.03125 15.550781 -134.667969 C 14.84375 -127.597656 14.84375 -120.175781 14.84375 -112.753906 Z M 130.78125 -131.132812 C 130.78125 -118.054688 129.71875 -104.976562 127.597656 -91.898438 C 126.539062 -83.417969 123.710938 -75.285156 119.824219 -67.511719 C 117.347656 -62.207031 113.460938 -57.613281 108.511719 -54.785156 C 103.5625 -51.605469 98.261719 -50.191406 92.253906 -52.3125 C 87.65625 -54.078125 83.0625 -56.199219 78.820312 -58.675781 C 73.875 -61.855469 70.691406 -66.097656 68.21875 -71.046875 C 65.035156 -77.054688 63.976562 -83.417969 62.914062 -89.777344 C 60.441406 -104.269531 59.382812 -119.117188 60.089844 -133.609375 C 61.148438 -149.160156 63.976562 -164.710938 71.753906 -178.496094 C 75.992188 -185.566406 80.941406 -191.929688 86.949219 -197.585938 C 89.425781 -200.410156 92.605469 -201.472656 96.496094 -201.472656 C 100.734375 -201.117188 104.976562 -200.765625 108.867188 -199.351562 C 110.988281 -198.644531 112.398438 -197.585938 113.460938 -196.171875 C 117.347656 -192.28125 119.824219 -187.332031 121.945312 -182.386719 C 125.832031 -173.550781 127.953125 -164.359375 129.011719 -154.816406 C 129.71875 -147.039062 130.074219 -139.261719 130.78125 -131.132812 Z M 130.78125 -131.132812 "/></g></g></g><g fill="#033757" fill-opacity="1"><g transform="translate(859.480963, 533.242172)"><g><path d="M 14.84375 -121.945312 C 14.84375 -106.390625 14.84375 -90.484375 14.492188 -74.933594 L 14.492188 -53.371094 C 14.492188 -37.113281 14.492188 -20.5 14.84375 -3.886719 C 14.84375 0.351562 14.84375 0.707031 19.441406 1.414062 L 21.5625 1.414062 C 25.449219 1.414062 29.335938 1.058594 32.871094 1.414062 C 41 2.121094 49.132812 2.121094 57.261719 2.121094 C 58.675781 2.121094 59.734375 1.765625 60.796875 1.765625 C 63.976562 1.058594 65.390625 -0.707031 65.742188 -3.886719 C 65.742188 -11.3125 66.097656 -19.085938 66.097656 -26.507812 C 65.742188 -43.476562 65.390625 -60.441406 65.390625 -77.40625 C 65.390625 -87.304688 65.742188 -97.203125 66.097656 -107.097656 C 66.097656 -108.511719 66.449219 -109.21875 67.863281 -109.21875 C 71.046875 -109.21875 74.226562 -109.574219 77.40625 -109.574219 C 87.65625 -109.925781 97.554688 -109.925781 107.453125 -109.21875 C 114.167969 -108.867188 121.238281 -109.21875 127.953125 -109.574219 C 130.074219 -109.925781 130.78125 -110.632812 130.78125 -113.105469 C 130.78125 -115.933594 131.132812 -118.761719 131.132812 -121.589844 C 131.132812 -129.367188 131.132812 -136.789062 130.78125 -144.210938 C 130.78125 -145.980469 130.074219 -147.746094 129.367188 -149.160156 C 127.953125 -151.988281 125.476562 -152.695312 122.652344 -153.046875 C 112.753906 -153.046875 102.855469 -153.402344 93.3125 -153.402344 L 91.191406 -153.402344 C 84.476562 -153.046875 77.40625 -152.695312 70.339844 -152.339844 C 68.570312 -152.339844 68.21875 -152.695312 68.21875 -154.816406 C 68.21875 -157.644531 68.570312 -160.472656 68.21875 -163.296875 C 68.21875 -174.609375 67.863281 -185.566406 67.863281 -196.878906 C 67.863281 -199.351562 67.863281 -199.351562 70.339844 -199.703125 L 85.183594 -200.765625 C 90.839844 -200.765625 96.847656 -201.472656 102.503906 -201.472656 C 109.925781 -201.824219 116.996094 -201.824219 124.417969 -201.824219 C 127.953125 -201.824219 131.839844 -201.824219 135.375 -202.179688 C 141.03125 -202.886719 143.503906 -204.300781 144.210938 -210.308594 C 145.625 -220.914062 145.625 -231.515625 145.273438 -242.121094 C 145.273438 -243.179688 145.273438 -243.886719 144.917969 -244.59375 C 143.859375 -248.128906 142.445312 -250.957031 138.203125 -251.308594 C 134.316406 -252.015625 130.425781 -252.722656 126.539062 -252.722656 C 120.882812 -253.078125 115.226562 -252.722656 109.574219 -252.722656 L 54.785156 -252.722656 C 44.535156 -252.371094 33.933594 -251.308594 23.683594 -249.894531 C 20.855469 -249.542969 18.378906 -248.480469 16.613281 -246.363281 C 15.550781 -245.65625 14.84375 -243.886719 14.84375 -242.828125 C 14.492188 -239.292969 14.136719 -235.757812 14.492188 -232.222656 C 14.492188 -210.308594 14.84375 -188.039062 14.84375 -165.773438 Z M 14.84375 -121.945312 "/></g></g></g><g fill="#033757" fill-opacity="1"><g transform="translate(1012.175398, 533.242172)"><g><path d="M 14.84375 -121.945312 C 14.84375 -106.390625 14.84375 -90.484375 14.492188 -74.933594 L 14.492188 -53.371094 C 14.492188 -37.113281 14.492188 -20.5 14.84375 -3.886719 C 14.84375 0.351562 14.84375 0.707031 19.441406 1.414062 L 21.5625 1.414062 C 25.449219 1.414062 29.335938 1.058594 32.871094 1.414062 C 41 2.121094 49.132812 2.121094 57.261719 2.121094 C 58.675781 2.121094 59.734375 1.765625 60.796875 1.765625 C 63.976562 1.058594 65.390625 -0.707031 65.742188 -3.886719 C 65.742188 -11.3125 66.097656 -19.085938 66.097656 -26.507812 C 65.742188 -43.476562 65.390625 -60.441406 65.390625 -77.40625 C 65.390625 -87.304688 65.742188 -97.203125 66.097656 -107.097656 C 66.097656 -108.511719 66.449219 -109.21875 67.863281 -109.21875 C 71.046875 -109.21875 74.226562 -109.574219 77.40625 -109.574219 C 87.65625 -109.925781 97.554688 -109.925781 107.453125 -109.21875 C 114.167969 -108.867188 121.238281 -109.21875 127.953125 -109.574219 C 130.074219 -109.925781 130.78125 -110.632812 130.78125 -113.105469 C 130.78125 -115.933594 131.132812 -118.761719 131.132812 -121.589844 C 131.132812 -129.367188 131.132812 -136.789062 130.78125 -144.210938 C 130.78125 -145.980469 130.074219 -147.746094 129.367188 -149.160156 C 127.953125 -151.988281 125.476562 -152.695312 122.652344 -153.046875 C 112.753906 -153.046875 102.855469 -153.402344 93.3125 -153.402344 L 91.191406 -153.402344 C 84.476562 -153.046875 77.40625 -152.695312 70.339844 -152.339844 C 68.570312 -152.339844 68.21875 -152.695312 68.21875 -154.816406 C 68.21875 -157.644531 68.570312 -160.472656 68.21875 -163.296875 C 68.21875 -174.609375 67.863281 -185.566406 67.863281 -196.878906 C 67.863281 -199.351562 67.863281 -199.351562 70.339844 -199.703125 L 85.183594 -200.765625 C 90.839844 -200.765625 96.847656 -201.472656 102.503906 -201.472656 C 109.925781 -201.824219 116.996094 -201.824219 124.417969 -201.824219 C 127.953125 -201.824219 131.839844 -201.824219 135.375 -202.179688 C 141.03125 -202.886719 143.503906 -204.300781 144.210938 -210.308594 C 145.625 -220.914062 145.625 -231.515625 145.273438 -242.121094 C 145.273438 -243.179688 145.273438 -243.886719 144.917969 -244.59375 C 143.859375 -248.128906 142.445312 -250.957031 138.203125 -251.308594 C 134.316406 -252.015625 130.425781 -252.722656 126.539062 -252.722656 C 120.882812 -253.078125 115.226562 -252.722656 109.574219 -252.722656 L 54.785156 -252.722656 C 44.535156 -252.371094 33.933594 -251.308594 23.683594 -249.894531 C 20.855469 -249.542969 18.378906 -248.480469 16.613281 -246.363281 C 15.550781 -245.65625 14.84375 -243.886719 14.84375 -242.828125 C 14.492188 -239.292969 14.136719 -235.757812 14.492188 -232.222656 C 14.492188 -210.308594 14.84375 -188.039062 14.84375 -165.773438 Z M 14.84375 -121.945312 "/></g></g></g><g clip-path="url(#0caab2a077)"><path fill="#fef9ea" d="M 1230.542969 81 L 1283.230469 81 L 1283.230469 132.476562 L 1230.542969 132.476562 Z M 1230.542969 81 " fill-opacity="1" fill-rule="nonzero"/></g><g clip-path="url(#f8c8b5eb70)"><path fill="#d89c60" d="M 557.339844 275 C 505.757812 275 463.917969 316.839844 463.917969 368.421875 C 463.917969 438.488281 557.339844 541.917969 557.339844 541.917969 C 557.339844 541.917969 650.761719 438.488281 650.761719 368.421875 C 650.761719 316.839844 608.921875 275 557.339844 275 Z M 557.339844 401.785156 C 538.921875 401.785156 523.976562 386.835938 523.976562 368.421875 C 523.976562 350.003906 538.921875 335.054688 557.339844 335.054688 C 575.757812 335.054688 590.703125 350.003906 590.703125 368.421875 C 590.703125 386.835938 575.757812 401.785156 557.339844 401.785156 Z M 557.339844 401.785156 " fill-opacity="1" fill-rule="nonzero"/></g><g clip-path="url(#ed8f0d4ffb)"><g clip-path="url(#29f699c7d8)"><g clip-path="url(#e94fa84e47)"><path fill="#fef9ea" d="M 507.164062 443.855469 C 509.378906 443.242188 511.957031 442.589844 514.03125 441.585938 C 516.125 440.554688 517.058594 436.980469 518.347656 435.058594 C 520.46875 431.929688 523.214844 429.144531 526.609375 427.515625 C 530.003906 425.882812 534.089844 425.464844 537.578125 426.917969 C 539.851562 427.84375 541.75 429.5 544.050781 430.304688 C 547.851562 431.644531 552.175781 430.546875 555.957031 431.910156 C 561.199219 433.792969 563.726562 439.597656 567.722656 443.460938 C 569.148438 444.84375 570.773438 446 572.164062 447.441406 C 576.195312 451.648438 577.464844 458.273438 575.25 463.671875 C 574.308594 465.984375 572.808594 468.03125 571.976562 470.417969 C 570.949219 473.308594 571.011719 476.480469 570.277344 479.464844 C 568.378906 487.332031 560.527344 493.324219 552.425781 493.097656 C 550.710938 493.050781 548.992188 492.757812 547.277344 492.894531 C 543.003906 493.273438 539.507812 496.296875 535.550781 497.984375 C 528.726562 500.921875 520.878906 499.773438 513.597656 501.234375 C 508.054688 502.332031 502.789062 504.582031 497.574219 506.703125 C 487.164062 510.945312 480.308594 509.796875 479.859375 509.558594 L 475.710938 469.140625 C 476.097656 468.351562 476.589844 467.605469 477.261719 466.988281 C 479.601562 464.796875 483.421875 464.363281 486.289062 463.132812 C 489.992188 461.550781 493.902344 460.785156 496.265625 457.449219 C 498.078125 454.882812 498.96875 453.265625 500.476562 450.484375 C 502.046875 447.738281 504.136719 444.695312 507.164062 443.855469 Z M 507.164062 443.855469 " fill-opacity="1" fill-rule="nonzero"/></g></g></g><g clip-path="url(#38e4599c54)"><g clip-path="url(#d356198bbb)"><g clip-path="url(#e296b8b70a)"><path fill="#005174" d="M 550.523438 469.179688 C 549.816406 471.226562 548.640625 473.054688 547.464844 474.886719 C 544.289062 479.832031 541.089844 484.757812 537.914062 489.703125 C 536.949219 491.1875 535.945312 492.734375 534.433594 493.640625 C 532.1875 494.992188 525.128906 497 520.8125 492.414062 C 519.398438 490.929688 518.398438 489.121094 517.652344 487.183594 C 516.113281 483.089844 514.628906 478.925781 512.199219 475.308594 C 509.726562 471.613281 506.324219 468.605469 504.117188 464.761719 C 501.914062 460.917969 501.207031 455.640625 504.167969 452.34375 C 506.449219 449.789062 510.273438 449.195312 513.6875 449.535156 C 517.101562 449.878906 520.394531 451.023438 523.816406 451.285156 C 528.128906 451.65625 532.441406 450.644531 536.757812 450.445312 C 547.125 449.972656 554.167969 458.691406 550.523438 469.179688 Z M 568.1875 452.53125 C 566.117188 451.605469 563.730469 451.359375 561.5625 452.03125 C 559.394531 452.703125 557.503906 454.320312 556.703125 456.4375 C 555.921875 458.550781 556.308594 461.136719 557.84375 462.792969 C 559.144531 464.183594 561.128906 464.855469 563.011719 464.785156 C 564.902344 464.734375 566.761719 464.011719 568.390625 463.03125 C 569.515625 462.324219 570.609375 461.460938 571.265625 460.316406 C 573.007812 457.265625 571.128906 453.835938 568.1875 452.53125 Z M 560.648438 473.269531 C 559.21875 473.027344 557.757812 472.875 556.359375 473.117188 C 554.960938 473.363281 553.566406 474.078125 552.699219 475.34375 C 551.726562 476.75 551.492188 478.625 551.554688 480.429688 C 551.59375 481.625 551.765625 482.890625 552.28125 483.957031 C 553.214844 485.914062 555.261719 487.007812 557.21875 487.050781 C 560.097656 487.121094 564.75 484.671875 565.929688 481.496094 C 567.421875 477.417969 563.875 473.773438 560.648438 473.269531 Z M 558.367188 436.933594 C 557.644531 436.050781 556.632812 435.523438 555.640625 435.179688 C 553.257812 434.363281 550.679688 434.40625 548.347656 435.277344 C 546.796875 435.863281 545.222656 436.980469 544.71875 438.800781 C 544.222656 440.519531 544.816406 442.535156 545.84375 444 C 547.34375 446.125 549.71875 447.285156 552.011719 447.210938 C 554.304688 447.140625 556.515625 445.875 558.085938 443.941406 C 559.527344 442.125 559.996094 438.945312 558.367188 436.933594 Z M 534.296875 434.804688 C 533.054688 433.792969 531.273438 433.691406 529.660156 433.835938 C 527.824219 433.984375 525.953125 434.398438 524.382812 435.351562 C 522.8125 436.308594 521.53125 437.90625 521.289062 439.742188 C 521.03125 441.761719 522.035156 443.835938 523.683594 445.03125 C 525.332031 446.222656 527.503906 446.53125 529.496094 446.144531 C 531.488281 445.714844 533.289062 444.613281 534.726562 443.164062 C 535.371094 442.507812 535.96875 441.777344 536.265625 440.910156 C 536.820312 439.183594 535.652344 435.925781 534.296875 434.804688 Z M 534.296875 434.804688 " fill-opacity="1" fill-rule="nonzero"/></g></g></g><g clip-path="url(#9d618de8c4)"><path fill="#fef9ea" d="M 197.683594 335.03125 L 225.121094 335.03125 L 225.121094 452.710938 L 197.683594 452.710938 Z M 197.683594 335.03125 " fill-opacity="1" fill-rule="nonzero"/></g><g clip-path="url(#ec254e641a)"><path fill="#fef9ea" d="M 1097.339844 541.925781 L 1220.878906 541.925781 L 1220.878906 903.867188 L 1097.339844 903.867188 Z M 1097.339844 541.925781 " fill-opacity="1" fill-rule="nonzero"/></g><g clip-path="url(#c5c6dcff40)"><g clip-path="url(#08f9ab5a8b)"><path fill="#fef9ea" d="M 880.578125 164.390625 L 880.578125 204.320312 L 852.878906 204.320312 L 852.878906 164.390625 Z M 880.578125 164.390625 " fill-opacity="1" fill-rule="nonzero"/></g></g><g clip-path="url(#702d05a1c2)"><g clip-path="url(#3202ec0eec)"><path fill="#fef9ea" d="M 907.117188 184.984375 L 947.089844 184.984375 L 947.089844 205.867188 L 907.117188 205.867188 Z M 907.117188 184.984375 " fill-opacity="1" fill-rule="nonzero"/></g></g><g clip-path="url(#a3bc7b5045)"><g clip-path="url(#d8e2c77222)"><path fill="#fef9ea" d="M 893.601562 198.46875 L 933.574219 198.46875 L 933.574219 219.351562 L 893.601562 219.351562 Z M 893.601562 198.46875 " fill-opacity="1" fill-rule="nonzero"/></g></g></svg>